<svg width="58" height="58" viewBox="0 0 58 58" fill="none" xmlns="http://www.w3.org/2000/svg">
<path d="M28.8 57.6C44.7058 57.6 57.6 44.7058 57.6 28.8C57.6 12.8942 44.7058 0 28.8 0C12.8942 0 0 12.8942 0 28.8C0 44.7058 12.8942 57.6 28.8 57.6Z" fill="#9F6CAB"/>
<path d="M36.6777 40.9281C36.6777 41.2376 35.8194 41.4909 34.1028 41.6879C32.3862 41.8567 30.6695 41.9412 28.9529 41.9412C27.2363 41.9412 26.1247 41.8708 25.6182 41.7301C25.1398 41.5613 24.9006 41.2939 24.9006 40.9281V22.6924H20.5949C20.1165 22.6924 19.8773 21.6653 19.8773 19.611C19.8773 17.5566 20.1165 15.6993 20.5949 14.039C20.7356 13.5043 22.2271 13.0118 25.0694 12.5615C27.9117 12.1113 30.0927 11.8861 31.6123 11.8861C33.1319 11.8861 34.145 11.9424 34.6516 12.055C35.1581 12.1676 35.538 12.3083 35.7913 12.4771C36.0446 12.6178 36.2415 12.7867 36.3823 12.9837C36.5792 13.2932 36.6777 13.5887 36.6777 13.8701V40.9281Z" fill="white"/>
</svg>
