<svg width="58" height="58" viewBox="0 0 58 58" fill="none" xmlns="http://www.w3.org/2000/svg">
<path d="M28.8 57.6C44.7058 57.6 57.6 44.7058 57.6 28.8C57.6 12.8942 44.7058 0 28.8 0C12.8942 0 0 12.8942 0 28.8C0 44.7058 12.8942 57.6 28.8 57.6Z" fill="#9F6CAB"/>
<path d="M20.0169 22.9064C19.2289 22.9064 18.5395 21.9778 17.9485 20.1204C17.3857 18.2631 17.1043 16.4761 17.1043 14.7595C17.1043 14.3655 17.5404 13.9293 18.4128 13.4509C19.2852 12.9444 20.6079 12.4941 22.3808 12.1001C24.1537 11.7062 26.0814 11.5092 28.1638 11.5092C36.2404 11.5092 40.2787 14.3374 40.2787 19.9938C40.2787 21.5697 39.941 23.0471 39.2656 24.4261C38.5902 25.805 37.8445 26.9166 37.0284 27.7608C36.2123 28.5769 35.2555 29.3367 34.1579 30.0403C32.8916 30.8282 31.6815 31.4473 30.5277 31.8976H38.9701C39.139 31.8976 39.3219 31.982 39.5189 32.1509C39.7159 32.2916 39.9269 32.7419 40.1521 33.5017C40.3772 34.2333 40.4898 35.162 40.4898 36.2877C40.4898 37.3852 40.4194 38.3139 40.2787 39.0737C40.138 39.8053 39.9691 40.34 39.7722 40.6777C39.35 41.4375 38.9701 41.8456 38.6324 41.9019L38.4214 41.9441H19.9325C18.1596 41.9441 17.2731 39.1722 17.2731 33.6283C17.2731 33.0092 19.1023 31.3066 22.7607 28.5206C24.1396 27.5076 25.406 26.396 26.5598 25.1859C27.7136 23.9758 28.2905 22.9909 28.2905 22.231C28.2905 21.3868 27.6573 20.9647 26.3909 20.9647C25.1246 20.9647 23.7878 21.2883 22.3808 21.9356C21.0018 22.5828 20.2139 22.9064 20.0169 22.9064Z" fill="white"/>
</svg>
