<svg width="58" height="58" viewBox="0 0 58 58" fill="none" xmlns="http://www.w3.org/2000/svg">
<path d="M28.8 57.6C44.7058 57.6 57.6 44.7058 57.6 28.8C57.6 12.8942 44.7058 0 28.8 0C12.8942 0 0 12.8942 0 28.8C0 44.7058 12.8942 57.6 28.8 57.6Z" fill="#9F6CAB"/>
<path d="M40.0028 19.3972C40.0028 22.2395 38.8771 24.3642 36.6258 25.7712C36.9354 25.9119 37.3294 26.2496 37.8078 26.7843C38.3143 27.319 38.7364 27.8537 39.0741 28.3884C39.9465 29.7673 40.3827 31.3995 40.3827 33.285C40.3827 36.3805 39.2711 38.66 37.0479 40.1234C34.8248 41.5867 31.7714 42.3184 27.8879 42.3184C25.9743 42.3184 24.1592 42.1636 22.4426 41.8541C20.7541 41.5164 19.4596 41.1505 18.559 40.7565C17.6585 40.3344 17.2083 39.9545 17.2083 39.6168C17.2083 38.069 17.3771 36.7042 17.7148 35.5222C18.0525 34.3403 18.4324 33.5101 18.8545 33.0317C19.2767 32.5252 19.6847 32.2719 20.0787 32.2719C20.1912 32.2719 20.937 32.5252 22.3159 33.0317C23.6949 33.5383 25.0456 33.7915 26.3683 33.7915C27.7191 33.7915 28.3945 33.3694 28.3945 32.5252C28.3945 31.3714 26.9733 30.7523 24.131 30.6678C23.0054 30.6397 22.3863 30.6116 22.2737 30.5834C21.6827 30.3864 21.3873 29.1482 21.3873 26.8688C21.3873 24.5893 21.6827 23.337 22.2737 23.1119C22.3863 23.0556 23.0054 23.0275 24.131 23.0275C26.9733 22.9712 28.3945 22.3943 28.3945 21.2968C28.3945 20.4525 27.7754 20.0304 26.5371 20.0304C25.3271 20.0304 23.9763 20.3259 22.4848 20.9168C20.9933 21.5078 20.1772 21.8033 20.0365 21.8033C19.3892 21.8033 18.7982 20.8606 18.2636 18.9751C17.7289 17.0896 17.4615 15.7529 17.4615 14.9649C17.4615 14.2333 18.2776 13.4875 19.9098 12.7277C21.7109 11.9116 24.3562 11.5036 27.8457 11.5036C35.9504 11.5036 40.0028 14.1348 40.0028 19.3972Z" fill="white"/>
</svg>
