<svg width="121" height="48" viewBox="0 0 121 48" fill="none" xmlns="http://www.w3.org/2000/svg">
<g clip-path="url(#clip0_6_24)">
<path d="M1.46588 35.0528C1.43518 35.0042 1.24331 34.513 1.17936 34.3493C1.14098 34.1702 0.892834 33.4769 0.859577 33.3644C0.424675 32.0776 -0.271169 30.2408 1.17936 29.2354C2.04149 28.6521 3.18502 28.8773 3.73249 29.7931C4.02925 30.2894 4.15716 30.952 4.40531 31.4764C4.59718 31.9676 5.33395 33.6458 5.45675 33.9093C5.81234 34.6716 6.8689 36.8308 6.95844 36.9792L7.15031 37.3015C8.07128 36.6491 10.2867 35.1219 10.1588 33.6151L10.1383 33.5256L8.28617 29.9261C7.49567 28.381 6.30865 25.7281 8.19152 24.4311C10.0232 23.1647 11.5914 25.2216 12.451 26.6567C13.134 27.7951 13.7071 29.0333 13.9629 30.361C14.032 30.7576 14.1139 32.1876 14.2776 32.4588C14.756 33.3158 15.0527 33.8095 15.5132 34.5795C15.6181 34.7535 15.8842 35.1986 15.8995 35.2242L18.7673 39.563C18.8057 39.5732 18.9259 39.7702 18.9694 39.8444C19.5629 40.8344 19.2994 42.1365 18.3273 42.8196C17.0737 43.7047 15.8867 42.7326 15.1858 41.6735C14.8046 41.0953 13.0368 38.4194 12.6198 37.895C12.4715 37.9845 12.0263 38.5883 11.8805 38.7418C11.4635 39.2253 10.9647 39.6269 10.4786 40.0516C10.6116 40.2742 10.9442 40.379 11.1258 40.5709C11.5428 40.9265 11.8421 41.3179 12.1108 41.7656C12.9115 43.1036 13.1315 45.1578 11.681 46.1606C9.51669 47.6598 7.41637 45.0478 6.19864 43.5231C5.97096 43.4233 4.91696 43.8531 4.63811 43.9529C4.35158 44.091 3.07246 44.6538 2.81152 44.7792C1.82659 45.099 0.867252 44.902 0.301879 43.9606C-0.455362 42.6968 0.304437 41.4356 1.37378 40.6937C2.03893 40.2281 2.75012 39.9032 3.41527 39.4376C3.44085 39.4223 3.51504 39.3788 3.51504 39.3788L1.46588 35.0528ZM3.98831 38.5883C4.07785 38.7367 4.22111 38.752 4.35414 38.6369C4.47694 38.5627 4.51787 38.4041 4.46926 38.266C3.32317 36.4624 2.22056 34.3979 1.77287 32.2439C1.70892 31.9113 1.45821 30.9852 1.72938 30.6552C1.87264 30.5017 2.13614 30.3789 1.97241 30.1052C1.86753 29.9312 1.62705 29.9773 1.45309 30.0796C-0.0332516 31.1387 2.73477 36.5443 3.38713 37.6341C3.47411 37.7876 3.89878 38.4399 3.98831 38.5883ZM3.76063 43.4361C3.89366 43.3236 3.97296 43.1752 3.87063 43.0012C3.63272 42.6047 2.43546 43.5257 1.82659 42.51C1.81124 42.4845 1.73706 42.3617 1.72171 42.3361C1.65775 42.0035 1.83171 41.7323 2.07986 41.584C2.21289 41.4688 2.40732 41.4561 2.56593 41.3281C2.71431 41.2386 2.71431 41.0698 2.64012 40.947C2.44825 40.6246 1.99288 40.9316 1.79334 41.0493C1.17936 41.4842 0.951674 42.2261 1.35076 42.8963C1.7959 43.6357 2.99827 43.9606 3.76063 43.4361ZM2.75268 30.0106C2.77826 29.9952 2.87548 29.9364 2.87548 29.9364C2.90617 29.8187 2.92408 29.7394 2.86524 29.6396C2.79105 29.5168 2.59151 29.4657 2.44313 29.5552C2.32034 29.6294 2.26406 29.7624 2.36894 29.9364C2.46104 30.0847 2.61965 30.1231 2.75268 30.0106ZM7.76429 43.6612C8.19407 44.3801 10.2918 46.4216 11.2768 45.7641C11.4098 45.649 11.4737 45.4776 11.3868 45.3292C11.3279 45.2294 10.2279 45.0811 9.99508 44.9173C9.07411 44.3929 8.45246 43.6894 7.92802 42.7582C7.83336 42.7147 7.6901 42.6994 7.59033 42.7582C7.43172 42.8861 7.49055 43.1547 7.56474 43.2775C7.58777 43.3645 7.73615 43.6126 7.76429 43.6612ZM10.5323 32.2157C10.5912 32.3155 10.7907 32.3641 10.9135 32.2899C11.0363 32.2157 11.0772 32.0571 11.0286 31.919C10.0411 30.3252 8.87968 28.4961 8.77735 26.4725C8.73898 25.4518 9.68042 25.3955 9.4118 24.9478C9.26342 24.6997 8.95131 24.8532 8.76712 24.9964C7.14263 26.1041 9.25319 30.1896 9.87484 31.2283C10.0821 31.5762 10.256 31.809 10.5323 32.2157ZM10.8726 28.0075C11.2051 27.7747 10.8495 27.35 10.7012 27.1019C10.6116 26.9535 10.5093 26.9484 10.3609 27.0379C10.1025 27.2246 10.3404 27.6212 10.4581 27.8207C10.5451 27.9665 10.6756 28.1251 10.8726 28.0075ZM11.9419 45.1297C12.0647 45.0555 12.0801 44.9122 12.0059 44.7894C11.9317 44.6641 11.8242 44.595 11.6886 44.7101C11.5403 44.7997 11.5249 44.9429 11.6145 45.0913C11.704 45.2397 11.8089 45.2448 11.9419 45.1297ZM18.1124 42.0061C18.2608 41.9165 18.335 41.7042 18.2454 41.5558C18.0817 41.2821 17.7568 41.5789 17.5573 41.5302C16.3933 41.387 15.5695 40.0644 15.0041 39.123C14.6639 38.5525 14.4362 37.9487 14.096 37.3808C14.0218 37.258 13.8248 37.2068 13.6994 37.281C13.3182 37.5445 13.9169 38.4297 14.0499 38.6522C14.0653 38.6778 14.3902 39.2227 14.5232 39.4453C15.0451 40.3125 16.8103 42.9219 18.1124 42.0061ZM18.5422 41.2105C18.7161 41.1056 18.6957 41.0186 18.5908 40.8446C18.5166 40.7218 18.3631 40.576 18.2045 40.7065C18.0817 40.7807 18.0791 40.9495 18.1559 41.0723C18.2454 41.2207 18.3836 41.3384 18.5422 41.2105Z" fill="#E8DE7B"/>
<path d="M21.1797 19.7981C25.9944 18.3706 30.6683 21.4405 32.0574 26.1169C33.3954 30.6271 32.2621 37.7696 27.0586 39.3123C23.0447 40.5018 19.7267 37.0303 18.6675 33.4616C18.4706 32.7964 18.4399 32.0827 18.2429 31.4201C18.2352 31.392 18.2173 31.3383 18.2096 31.3101C17.3091 30.4045 16.644 29.4861 16.2756 28.2402C15.1755 24.5308 17.5803 20.8649 21.1797 19.7981ZM17.7645 28.7903C17.9026 28.7493 18.0075 28.5984 17.9666 28.4603C16.8972 25.1627 18.6496 21.9342 21.9702 20.9493C22.9398 20.6628 23.8813 20.5937 24.879 20.8086C25.2039 20.893 25.8127 21.3151 26.1453 21.2154C26.3116 21.1668 26.3525 21.003 26.3116 20.8649C26.2451 20.6449 25.9202 20.5605 25.713 20.4709C24.4594 20.0002 23.0703 19.99 21.7988 20.3686C18.6164 21.3126 16.273 24.779 17.258 28.0995C17.3066 28.2633 17.4319 28.89 17.7645 28.7903ZM20.3662 32.6864C20.5325 32.6378 20.6144 32.4025 20.5709 32.2643C20.53 32.1262 20.4404 32.0315 20.2767 32.0801C20.0541 32.1467 20.0209 32.336 20.072 32.5023C20.1104 32.6404 20.2255 32.7274 20.3662 32.6864ZM24.0015 38.1406C24.2445 38.2506 24.7306 38.4655 24.9787 38.3938C25.1732 38.3376 25.232 38.2276 25.1808 38.0638C25.1476 37.9538 23.4029 37.1454 23.1445 36.9817C22.134 36.3191 21.2028 35.2089 20.8574 34.0474C20.7832 33.7993 20.7525 33.5972 20.6886 33.3746C20.6476 33.2365 20.4967 33.1316 20.3585 33.1725C19.9697 33.2876 20.1948 33.9425 20.269 34.1932C20.7934 35.961 22.4103 37.3475 24.0015 38.1406ZM23.257 27.6135C22.4256 27.8591 22.3028 28.8593 22.5152 29.5808C22.9987 31.2129 24.8611 31.5045 26.3551 31.3613C27.2121 31.108 27.0765 28.6189 26.8718 27.9256C26.6493 27.1786 26.066 26.3267 25.1527 26.5979C24.2675 26.8614 24.5387 27.4728 24.265 27.7644C23.9708 27.5828 23.6152 27.506 23.257 27.6135ZM27.2735 21.8754C27.4398 21.8268 27.4884 21.6912 27.4398 21.5249C27.4321 21.4968 27.4065 21.4149 27.3988 21.3868C27.3272 21.3484 27.2556 21.31 27.1712 21.333C27.033 21.374 26.9077 21.5607 26.9486 21.7014C26.9921 21.837 27.1353 21.9163 27.2735 21.8754Z" fill="#E8719F"/>
<path d="M33.9607 16.9227C35.0454 16.7564 35.8897 17.5009 36.1327 18.5165C36.1762 18.8004 36.3885 20.1716 36.432 20.4556C36.6418 21.6222 37.5883 27.0251 37.7981 28.1891C38.2049 29.8776 38.6705 32.9039 41.0087 32.5432C41.8657 32.4102 42.7074 32.1928 43.5644 32.0623C44.7924 31.873 46.1354 32.2516 46.3554 33.6765C46.5192 34.7331 45.8464 35.6822 44.8077 35.9585C43.7563 36.1503 42.6818 36.3729 41.6252 36.5366C41.5101 36.5545 40.9678 36.6389 40.8552 36.6543C36.368 36.9076 34.6463 32.5586 33.8226 28.9157C33.4389 26.9893 33.1114 25.0527 32.8172 23.1417C32.6023 21.745 32.4207 20.3712 32.3516 18.9795C32.3107 17.9639 32.9349 17.0813 33.9607 16.9227ZM35.3627 30.9597C35.4548 31.1797 35.5392 31.722 35.8794 31.6683C36.0508 31.6427 36.148 31.5097 36.1199 31.3383C35.0838 28.7826 34.4468 26.163 34.0375 23.5101C33.8891 22.5406 33.3928 18.5574 34.1347 18.4423C34.3905 18.4039 34.5338 18.7595 34.7896 18.7211C34.9329 18.6981 35.0582 18.5625 35.0301 18.3911C34.9738 18.0202 34.3828 17.7899 34.04 17.8437C33.2419 17.9665 33.1779 19.2609 33.1472 19.8212C33.0781 21.0875 33.2444 22.3461 33.4363 23.6022C33.8328 26.1425 34.4954 28.5524 35.3627 30.9597ZM36.4371 32.8093C36.6648 32.7735 36.7083 32.4767 36.6802 32.3053C36.6546 32.1339 36.5318 32.0955 36.3885 32.116C36.189 32.1467 36.0764 32.3693 36.1071 32.5688C36.1301 32.7095 36.2657 32.8349 36.4371 32.8093Z" fill="#9F6CAB"/>
<path d="M44.1605 15.0731C45.1684 15.0014 46.0613 15.7766 46.1329 16.7845C46.1789 17.4471 46.1124 18.1174 46.161 18.8081C46.2531 20.1025 46.3043 22.8782 47.5297 23.8324C48.4788 23.7659 49.8296 20.7754 50.0445 20.123C50.1442 19.8851 50.8682 17.8667 50.968 17.6262C51.3082 16.7052 51.9708 15.8482 53.035 15.7715C55.9719 15.5643 55.867 20.604 55.9873 22.3026C56.2815 26.4469 56.151 29.4964 54.0609 33.0574C53.493 34.0244 52.7306 35.0912 51.5206 35.1756C50.4563 35.2524 49.5047 34.4798 49.4254 33.3849C49.3384 32.1748 50.4615 31.2871 50.9705 30.2945C51.8659 28.6393 52.1499 26.9407 52.0169 25.0706C50.6149 26.5288 49.9754 27.703 47.7599 27.8616C43.8714 28.1405 42.4669 23.4385 42.252 20.3865C42.142 18.8311 41.7122 15.2445 44.1605 15.0731ZM45.3296 25.8381C45.5164 26.0274 45.9282 26.5186 46.3017 26.493C46.4731 26.4802 46.555 26.3881 46.5448 26.2448C46.5422 26.2167 46.5064 26.1323 46.5064 26.1323C44.6338 24.6153 43.9788 22.318 43.8126 19.9874C43.7563 19.1816 43.874 18.3911 43.8151 17.5853C43.8023 17.4139 43.7333 17.245 43.5312 17.2578C42.9556 17.2987 43.1756 19.5986 43.2063 20.0002C43.3444 21.9291 43.8407 24.4387 45.3296 25.8381ZM43.7844 16.718C43.9277 16.7078 44.1247 16.6361 44.1119 16.434C44.1016 16.2908 43.9814 16.2115 43.8074 16.2243C43.6053 16.2396 43.526 16.3317 43.5388 16.5338C43.5491 16.6771 43.6412 16.7282 43.7844 16.718ZM50.5868 33.4795C50.7889 33.4642 50.835 33.3158 50.8247 33.1444C50.8119 32.973 50.7761 32.886 50.5766 32.9014C50.3745 32.9167 50.331 33.0932 50.3412 33.2646C50.3514 33.4104 50.4435 33.4897 50.5868 33.4795ZM52.2241 30.0361C52.0373 30.6859 51.7866 31.6299 51.2417 32.1032C51.078 32.2311 50.7633 32.2823 50.7812 32.5406C50.794 32.712 50.945 32.7888 51.0882 32.7786C52.0092 32.712 52.5055 31.1439 52.6922 30.4941C53.5518 27.5112 53.6695 24.2904 53.452 21.2103L53.4265 20.8649C53.4137 20.6909 53.2627 20.5861 53.0888 20.5988C52.9736 20.6065 52.8662 20.7293 52.8457 20.847C53.0018 23.8759 53.0274 27.0865 52.2241 30.0361Z" fill="#6057A1"/>
<path d="M71.544 15.2803C74.6804 15.5233 76.1232 18.9641 75.9058 21.7552C75.8188 22.8782 75.0974 23.9782 73.831 23.881C71.4135 23.6943 72.5289 20.8854 71.5056 19.5039C71.4544 19.4118 71.3214 19.2583 71.1781 19.2481C70.7765 19.2174 70.252 19.6114 69.9144 19.8749C67.9701 21.4328 66.9493 24.1624 66.76 26.6081C66.65 28.0458 66.8956 31.2206 68.8808 31.3741C70.6076 31.5071 71.3802 29.3684 73.0789 29.4989C74.1431 29.5808 74.9669 30.5427 74.885 31.6069C74.7571 33.2467 72.0633 34.7765 70.7049 35.1347C69.9655 35.3368 69.3234 35.4033 68.5764 35.347C64.2018 35.0093 62.4903 30.2152 62.7845 26.3881C63.112 22.1235 66.2509 14.871 71.544 15.2803ZM63.8948 26.6132C63.8769 26.8435 63.9178 27.0788 64.1762 27.0993C64.3476 27.1121 64.473 27.0072 64.4858 26.8332C64.5088 26.516 64.4781 26.1681 64.5037 25.8509C64.7313 22.9166 66.1895 20.1639 68.4715 18.3425C68.8092 18.079 69.7609 17.7771 69.7941 17.3448C69.8069 17.1734 69.7276 17.0787 69.5536 17.0659C69.2083 17.0378 68.4971 17.6211 68.2822 17.7771C65.816 19.729 64.1992 22.6429 63.9588 25.7792C63.9485 25.9225 63.9025 26.4981 63.8948 26.6132ZM70.4439 17.1631C70.6153 17.1759 71.3316 16.9124 71.347 16.7129C71.3598 16.5415 71.1935 16.4392 71.0502 16.4289C70.7637 16.4059 70.2572 16.5696 70.2341 16.8868C70.2239 17.0301 70.2725 17.1503 70.4439 17.1631Z" fill="#6057A1"/>
<path d="M85.2945 16.9917C90.2166 17.9869 92.9053 22.8885 91.9358 27.6698C91.002 32.2797 86.653 38.0536 81.3369 36.9792C77.2361 36.1477 75.9339 31.5276 76.6707 27.8796C76.8088 27.2016 77.1158 26.557 77.254 25.8765C77.2591 25.8483 77.2719 25.792 77.277 25.7639C76.906 24.5411 76.75 23.4206 77.0084 22.1466C77.7758 18.3553 81.6183 16.2473 85.2945 16.9917ZM79.1854 34.513C79.3492 34.7228 79.6766 35.1424 79.9299 35.1935C80.1269 35.2345 80.2292 35.1654 80.265 34.9965C80.288 34.884 79.1266 33.3516 78.9731 33.0856C78.3924 32.0264 78.0905 30.6092 78.331 29.4222C78.3822 29.1663 78.4512 28.9745 78.4973 28.7494C78.5254 28.6087 78.441 28.4424 78.3003 28.4142C77.9038 28.3349 77.7963 29.018 77.7451 29.2738C77.3768 31.085 78.1545 33.0676 79.1854 34.513ZM78.0649 23.331C78.2056 23.3592 78.3694 23.2748 78.4001 23.134C79.0012 19.7214 82.0635 17.6927 85.4583 18.3783C86.4483 18.5778 87.313 18.959 88.0933 19.619C88.3414 19.8467 88.6791 20.5042 89.0193 20.5707C89.1882 20.604 89.3008 20.4812 89.3315 20.3405C89.3775 20.1153 89.1294 19.8877 88.9887 19.7111C88.1035 18.7083 86.8807 18.0483 85.5811 17.7848C82.327 17.1273 78.6329 19.0869 77.9473 22.4817C77.9063 22.6531 77.7247 23.262 78.0649 23.331ZM78.5331 27.9921C78.7019 28.0254 78.8836 27.8565 78.9117 27.7158C78.9399 27.5751 78.9066 27.4498 78.7378 27.4165C78.5126 27.3705 78.3924 27.524 78.3591 27.6928C78.331 27.831 78.3924 27.9614 78.5331 27.9921ZM83.4654 24.866C82.6161 24.6946 82.0379 25.5183 81.8895 26.2551C81.5518 27.923 83.0612 29.0538 84.4452 29.6294C85.3227 29.8059 86.369 27.5444 86.5123 26.8384C86.6658 26.0735 86.5506 25.0502 85.6169 24.8609C84.7113 24.6767 84.6652 25.3444 84.2866 25.4748C84.1101 25.173 83.8338 24.9427 83.4654 24.866ZM89.705 21.6835C89.8738 21.7168 89.9838 21.6221 90.0171 21.4533C90.0222 21.4252 90.0401 21.3407 90.0452 21.3126C89.9992 21.2461 89.9557 21.177 89.8687 21.1591C89.728 21.131 89.5284 21.2384 89.5003 21.3791C89.4722 21.5198 89.5617 21.6554 89.705 21.6835Z" fill="#9F6CAB"/>
<path d="M99.7 20.6295C100.749 21.0414 101.245 22.1619 100.805 23.198C100.739 23.3566 100.693 23.464 100.562 23.6278L97.592 29.2354C97.5792 29.261 97.3209 29.8724 97.2211 30.1129C96.4229 32.0008 95.5429 34.073 95.7654 36.1426C95.7859 36.2449 95.8243 36.4496 95.8243 36.4496L95.878 36.4726C96.4741 36.6926 99.1193 33.4872 99.7103 32.6071C100.649 31.2794 101.399 28.8389 103.576 29.6984C104.822 30.164 105.095 31.4406 104.625 32.556C104.31 33.3004 103.926 33.9835 103.622 34.7023C103.013 36.1375 102.404 37.9487 102.76 39.4785C102.79 39.5553 102.806 39.8111 102.913 39.8572C103.1 39.9365 103.448 39.7062 103.496 39.6653C105.474 38.6215 107.359 35.0605 108.168 33.1469C108.562 32.2157 108.915 31.2359 108.94 30.2126C108.961 29.9389 108.974 27.6877 108.969 27.4037C108.992 27.13 109.076 26.8537 109.189 26.5876C109.639 25.5234 110.823 25.022 111.898 25.4467C112.573 25.7025 113.205 26.2832 113.228 27.0456L113.328 28.8107C113.266 29.4759 113.295 30.1461 113.197 30.8241C113.064 32.1774 112.663 33.4207 112.133 34.6691C110.637 38.2045 106.328 45.7871 101.184 43.7968C99.8331 43.2877 99.1884 42.2926 98.6921 41.0186C98.5949 40.727 98.5718 40.1207 98.4414 39.9083C96.7836 40.4916 95.8806 41.1439 94.1307 40.466C89.6231 38.7469 91.8667 31.8908 93.1509 28.8593C94.2433 26.2806 95.6171 23.8529 97.175 21.5019C97.7379 20.6756 98.7867 20.2714 99.7 20.6295ZM92.8593 35.6028C92.8439 35.7845 92.867 35.9507 93.0639 36.0045C93.2225 36.071 93.3863 35.984 93.4426 35.851C93.4758 35.7717 93.4758 35.7717 93.4835 35.6796C93.5423 33.3209 93.8416 31.1285 94.778 28.9233C95.6324 26.9023 96.6813 24.8711 98.1804 23.1852C98.3007 23.0471 98.4721 23.088 98.5616 22.8756C98.6511 22.6633 98.6025 22.4842 98.4158 22.4075C98.1651 22.3333 97.9221 22.607 97.7916 22.7708C96.2004 24.605 95.021 26.6465 94.0872 28.8517C93.1765 31.0031 92.8849 33.3234 92.8593 35.6028ZM99.0937 22.0647C99.2651 22.1056 99.4647 22.0033 99.5337 21.8421C99.6003 21.6835 99.5133 21.5198 99.3547 21.4533C99.1679 21.374 99.0426 21.4482 98.9658 21.6324C98.907 21.7654 98.9351 21.9956 99.0937 22.0647ZM100.058 41.6275C100.161 41.827 100.358 42.2542 100.608 42.331C100.741 42.3872 100.92 42.3361 100.977 42.2031C101.112 41.8833 100.777 41.7119 100.67 41.4458C99.4826 38.8415 100.337 35.787 101.429 33.2083C101.757 32.4383 102.228 31.6964 102.563 30.8982C102.632 30.7396 102.581 30.5606 102.409 30.5196C102.036 30.361 101.805 30.9852 101.688 31.1848C101.365 31.8013 101.079 32.3999 100.808 33.0395C99.7051 35.6463 98.8021 38.9643 100.058 41.6275ZM101.409 42.9526C101.542 43.0089 101.706 42.9219 101.749 42.8145C101.818 42.6559 101.742 42.4665 101.608 42.4103C101.475 42.354 101.35 42.4256 101.294 42.5586C101.238 42.6917 101.24 42.9117 101.409 42.9526Z" fill="#E8719F"/>
<path d="M120.253 31.369C121.143 32.0085 121.207 33.1572 120.598 34.0014L113.561 43.9785C112.988 44.7741 112.131 44.9762 111.192 44.7997C111.555 45.6311 111.821 46.2476 111.189 47.0739C110.509 47.9719 109.327 48.33 108.365 47.6393C107.521 47.033 107.377 45.8971 108.014 45.1118C108.595 44.3545 109.511 44.0194 110.424 44.2855C109.713 43.3466 109.887 42.2645 110.562 41.3256L115.259 34.7484C116.019 33.6944 116.825 32.6737 117.677 31.6862C118.375 31.0134 119.434 30.7806 120.253 31.369ZM109.613 46.6493C109.705 46.7158 109.907 46.6825 109.977 46.5904C110.061 46.4727 110.035 46.3116 109.918 46.2272C109.8 46.1427 109.68 46.1632 109.595 46.2809C109.511 46.3986 109.45 46.5316 109.613 46.6493ZM111.734 42.6636C111.852 42.748 111.972 42.7275 112.056 42.6098C112.141 42.4921 112.156 42.3259 112.013 42.2235C111.895 42.1391 111.719 42.1903 111.65 42.2824C111.534 42.4487 111.593 42.5638 111.734 42.6636ZM117.324 34.4542C117.273 34.5233 117.065 34.7663 117.048 34.7893C116.316 35.7563 112.885 40.3279 112.177 41.3128C112.11 41.4075 112.136 41.5686 112.23 41.6351C112.348 41.7196 112.532 41.7093 112.64 41.6096C112.691 41.5405 112.926 41.2105 113 41.1593C113.085 41.0416 113.32 40.7142 113.338 40.6912C114.052 39.7472 117.367 35.3393 118.058 34.38C118.125 34.2854 118.081 34.1498 117.989 34.0807C117.871 33.9963 117.705 33.9835 117.58 34.1063C117.544 34.1498 117.375 34.3826 117.324 34.4542Z" fill="#E8DE7B"/>
<path d="M12.9857 21.9496L18.138 18.4832C19.0359 17.8794 19.0206 16.5415 18.097 15.9761C15.0016 14.0779 9.62668 9.6138 9.85693 1.55283C9.90042 0.0332388 7.91266 -0.593527 7.10425 0.695819C4.41042 4.99364 2.44824 12.4483 11.0516 21.7244C11.5505 22.2642 12.3742 22.3614 12.9857 21.9496Z" fill="#70B74C"/>
<path d="M5.76373 9.56262C6.05281 12.016 7.29612 16.0017 11.8063 20.1" stroke="white" stroke-width="0.5" stroke-miterlimit="10" stroke-linecap="round"/>
<path d="M6.52097 3.70428C6.52097 3.70428 6.37259 3.98825 6.34445 4.32082" stroke="white" stroke-width="0.5" stroke-miterlimit="10" stroke-linecap="round"/>
<path d="M105.372 21.9496L100.219 18.4832C99.3214 17.8794 99.3368 16.5415 100.26 15.9761C103.358 14.0805 108.736 9.61636 108.506 1.55539C108.462 0.0358022 110.45 -0.590963 111.258 0.698383C113.952 4.9962 115.912 12.4534 107.311 21.727C106.807 22.2642 105.983 22.3614 105.372 21.9496Z" fill="#70B74C"/>
<path d="M112.596 9.56262C112.307 12.016 111.064 16.0017 106.554 20.1" stroke="white" stroke-width="0.5" stroke-miterlimit="10" stroke-linecap="round"/>
<path d="M111.836 3.70428C111.836 3.70428 111.985 3.98825 112.013 4.32082" stroke="white" stroke-width="0.5" stroke-miterlimit="10" stroke-linecap="round"/>
</g>
<defs>
<clipPath id="clip0_6_24">
<rect width="121" height="48" fill="white"/>
</clipPath>
</defs>
</svg>
