<svg width="1024" height="405" viewBox="0 0 1024 405" fill="none" xmlns="http://www.w3.org/2000/svg">
<g clip-path="url(#clip0_7_56)">
<path d="M12.4054 295.758C12.1456 295.348 10.5219 291.204 9.98063 289.822C9.65588 288.311 7.55583 282.462 7.27438 281.512C3.59389 270.655 -2.2949 255.157 9.98063 246.674C17.2767 241.752 26.9542 243.652 31.5873 251.379C34.0987 255.567 35.1812 261.157 37.2812 265.582C38.905 269.727 45.1402 283.886 46.1794 286.11C49.1887 292.542 58.1302 310.76 58.8879 312.012L60.5117 314.731C68.3056 309.227 87.0545 296.341 85.972 283.627L85.7988 282.872L70.1242 252.502C63.4344 239.464 53.3888 217.081 69.3232 206.137C84.8246 195.452 98.096 212.807 105.37 224.916C111.151 234.521 116.001 244.969 118.166 256.171C118.75 259.517 119.443 271.583 120.828 273.871C124.877 281.102 127.388 285.268 131.285 291.765C132.173 293.233 134.425 296.988 134.555 297.204L158.824 333.813C159.149 333.899 160.166 335.561 160.535 336.187C165.557 344.54 163.327 355.527 155.1 361.29C144.492 368.759 134.446 360.556 128.514 351.62C125.288 346.742 110.328 324.164 106.799 319.739C105.544 320.495 101.776 325.589 100.542 326.884C97.0135 330.963 92.7917 334.352 88.6783 337.935C89.8041 339.813 92.6186 340.698 94.1557 342.317C97.6846 345.317 100.218 348.62 102.491 352.397C109.267 363.686 111.129 381.019 98.8537 389.48C80.5379 402.129 62.7632 380.091 52.4579 367.226C50.531 366.384 41.6112 370.011 39.2514 370.852C36.8266 372.018 26.0016 376.767 23.7933 377.824C15.4581 380.523 7.33933 378.86 2.55469 370.917C-3.8537 360.254 2.57634 349.613 11.626 343.353C17.255 339.425 23.2737 336.683 28.9027 332.755C29.1192 332.625 29.747 332.258 29.747 332.258L12.4054 295.758ZM33.7523 325.589C34.51 326.841 35.7224 326.97 36.8482 325.999C37.8874 325.373 38.2338 324.035 37.8225 322.869C28.1233 307.651 18.7922 290.232 15.0034 272.058C14.4622 269.252 12.3405 261.438 14.6354 258.653C15.8478 257.358 18.0777 256.322 16.6921 254.013C15.8045 252.545 13.7694 252.933 12.2972 253.797C-0.281456 262.733 23.1438 308.342 28.6645 317.537C29.4006 318.833 32.9945 324.337 33.7523 325.589ZM31.8254 366.492C32.9512 365.542 33.6224 364.291 32.7564 362.823C30.7429 359.477 20.6108 367.248 15.4581 358.678C15.3282 358.463 14.7003 357.427 14.5704 357.211C14.0292 354.405 15.5014 352.117 17.6014 350.865C18.7272 349.893 20.3726 349.785 21.7149 348.706C22.9706 347.951 22.9706 346.526 22.3428 345.49C20.719 342.77 16.8653 345.361 15.1766 346.353C9.98063 350.023 8.05378 356.283 11.4312 361.938C15.1983 368.176 25.3738 370.917 31.8254 366.492ZM23.2954 253.214C23.5119 253.084 24.3346 252.588 24.3346 252.588C24.5944 251.595 24.7459 250.926 24.248 250.084C23.6201 249.048 21.9314 248.616 20.6757 249.372C19.6365 249.998 19.1602 251.12 20.0479 252.588C20.8273 253.84 22.1696 254.164 23.2954 253.214ZM65.7076 368.392C69.3448 374.457 87.0978 391.682 95.4331 386.135C96.5589 385.163 97.1001 383.717 96.364 382.465C95.866 381.623 86.5566 380.371 84.5864 378.99C76.7924 374.565 71.5315 368.629 67.0932 360.772C66.2922 360.405 65.0798 360.276 64.2354 360.772C62.8931 361.851 63.3911 364.118 64.0189 365.154C64.2138 365.888 65.4695 367.982 65.7076 368.392ZM89.1329 271.82C89.6309 272.662 91.3196 273.072 92.3588 272.446C93.3979 271.82 93.7444 270.482 93.333 269.316C84.9761 255.869 75.147 240.436 74.281 223.362C73.9563 214.749 81.9235 214.275 79.6502 210.497C78.3945 208.403 75.7532 209.699 74.1944 210.907C60.4467 220.254 78.3079 254.725 83.5689 263.488C85.3225 266.424 86.7947 268.388 89.1329 271.82ZM92.0124 236.313C94.8269 234.349 91.8175 230.766 90.5618 228.672C89.8041 227.42 88.9381 227.377 87.6824 228.132C85.4957 229.708 87.5092 233.054 88.5051 234.737C89.2412 235.968 90.3453 237.306 92.0124 236.313ZM101.062 380.782C102.101 380.156 102.231 378.947 101.603 377.911C100.975 376.853 100.066 376.27 98.9187 377.242C97.663 377.997 97.5331 379.206 98.2908 380.458C99.0486 381.71 99.9362 381.753 101.062 380.782ZM153.282 354.426C154.537 353.671 155.165 351.879 154.408 350.627C153.022 348.318 150.272 350.822 148.584 350.411C138.733 349.203 131.762 338.043 126.977 330.1C124.098 325.286 122.171 320.192 119.291 315.4C118.663 314.364 116.996 313.933 115.936 314.559C112.71 316.782 117.776 324.25 118.902 326.128C119.032 326.344 121.781 330.942 122.907 332.82C127.323 340.137 142.262 362.154 153.282 354.426ZM156.919 347.713C158.391 346.828 158.218 346.094 157.33 344.627C156.702 343.591 155.403 342.36 154.061 343.461C153.022 344.087 153 345.512 153.65 346.548C154.408 347.8 155.577 348.793 156.919 347.713Z" fill="#E8DE7B"/>
<path d="M179.24 167.047C219.985 155.002 259.54 180.904 271.296 220.362C282.619 258.416 273.028 318.681 228.992 331.697C195.023 341.734 166.943 312.443 157.98 282.332C156.313 276.72 156.053 270.698 154.386 265.107C154.321 264.87 154.169 264.417 154.104 264.179C146.484 256.538 140.855 248.789 137.737 238.277C128.428 206.979 148.779 176.048 179.24 167.047ZM150.337 242.918C151.506 242.573 152.394 241.299 152.048 240.133C142.998 212.31 157.828 185.07 185.93 176.76C194.135 174.342 202.102 173.759 210.546 175.573C213.295 176.285 218.448 179.846 221.263 179.005C222.67 178.595 223.016 177.213 222.67 176.048C222.107 174.191 219.357 173.479 217.604 172.723C206.995 168.752 195.239 168.665 184.479 171.86C157.547 179.825 137.715 209.073 146.051 237.09C146.462 238.471 147.523 243.76 150.337 242.918ZM172.355 275.792C173.763 275.382 174.455 273.396 174.087 272.23C173.741 271.065 172.983 270.266 171.598 270.676C169.714 271.238 169.433 272.835 169.866 274.238C170.19 275.403 171.165 276.137 172.355 275.792ZM203.12 321.811C205.177 322.739 209.29 324.553 211.39 323.948C213.036 323.473 213.534 322.545 213.101 321.164C212.819 320.236 198.054 313.415 195.867 312.033C187.315 306.443 179.435 297.075 176.512 287.275C175.884 285.181 175.625 283.476 175.083 281.598C174.737 280.433 173.46 279.548 172.29 279.893C169 280.864 170.905 286.39 171.533 288.506C175.971 303.421 189.654 315.12 203.12 321.811ZM196.82 232.989C189.784 235.061 188.744 243.501 190.541 249.588C194.633 263.359 210.394 265.82 223.038 264.611C230.291 262.474 229.143 241.472 227.411 235.622C225.528 229.319 220.591 222.132 212.862 224.42C205.372 226.643 207.666 231.802 205.35 234.262C202.86 232.73 199.851 232.082 196.82 232.989ZM230.81 184.574C232.218 184.163 232.629 183.019 232.218 181.616C232.153 181.379 231.936 180.688 231.871 180.451C231.265 180.127 230.659 179.803 229.944 179.998C228.775 180.343 227.714 181.919 228.061 183.106C228.429 184.25 229.641 184.919 230.81 184.574Z" fill="#E8719F"/>
<path d="M287.403 142.785C296.583 141.382 303.727 147.663 305.784 156.232C306.152 158.628 307.949 170.198 308.317 172.594C310.092 182.437 318.103 228.024 319.878 237.845C323.321 252.092 327.261 277.627 347.049 274.583C354.302 273.461 361.424 271.626 368.677 270.525C379.069 268.928 390.435 272.123 392.297 284.145C393.683 293.06 387.989 301.068 379.199 303.399C370.301 305.018 361.208 306.896 352.267 308.277C351.292 308.429 346.703 309.141 345.75 309.27C307.776 311.407 293.205 274.713 286.234 243.976C282.987 227.722 280.215 211.382 277.726 195.258C275.907 183.473 274.37 171.882 273.785 160.139C273.439 151.57 278.722 144.123 287.403 142.785ZM299.267 261.222C300.047 263.078 300.761 267.654 303.641 267.201C305.091 266.985 305.914 265.863 305.676 264.417C296.908 242.853 291.517 220.75 288.053 198.366C286.797 190.186 282.597 156.578 288.875 155.606C291.04 155.283 292.253 158.283 294.418 157.959C295.63 157.765 296.691 156.621 296.453 155.175C295.977 152.045 290.976 150.102 288.074 150.556C281.32 151.592 280.778 162.514 280.519 167.241C279.934 177.925 281.341 188.545 282.965 199.144C286.321 220.577 291.928 240.911 299.267 261.222ZM308.36 276.828C310.287 276.526 310.655 274.022 310.417 272.576C310.201 271.13 309.161 270.806 307.949 270.979C306.26 271.238 305.308 273.115 305.568 274.799C305.762 275.986 306.91 277.044 308.36 276.828Z" fill="#9F6CAB"/>
<path d="M373.722 127.179C382.252 126.575 389.808 133.115 390.414 141.619C390.804 147.21 390.241 152.865 390.652 158.693C391.431 169.615 391.864 193.035 402.235 201.086C410.267 200.525 421.698 175.292 423.517 169.788C424.361 167.78 430.488 150.75 431.332 148.721C434.212 140.95 439.819 133.719 448.825 133.072C473.68 131.323 472.792 173.846 473.81 188.178C476.299 223.146 475.195 248.875 457.507 278.922C452.701 287.081 446.249 296.082 436.009 296.794C427.002 297.442 418.948 290.923 418.277 281.685C417.541 271.475 427.046 263.985 431.354 255.61C438.931 241.644 441.335 227.312 440.209 211.533C428.345 223.837 422.932 233.744 404.183 235.083C371.275 237.435 359.389 197.762 357.571 172.011C356.64 158.887 353.003 128.625 373.722 127.179ZM383.616 218.009C385.196 219.606 388.682 223.75 391.843 223.535C393.293 223.427 393.986 222.65 393.899 221.441C393.878 221.203 393.575 220.491 393.575 220.491C377.727 207.691 372.185 188.308 370.777 168.644C370.301 161.845 371.297 155.175 370.799 148.376C370.691 146.929 370.106 145.505 368.396 145.613C363.525 145.958 365.386 165.363 365.646 168.752C366.815 185.027 371.015 206.202 383.616 218.009ZM370.539 141.058C371.752 140.972 373.419 140.367 373.31 138.662C373.224 137.453 372.206 136.784 370.734 136.892C369.024 137.022 368.353 137.799 368.461 139.504C368.547 140.713 369.327 141.145 370.539 141.058ZM428.106 282.483C429.817 282.354 430.206 281.102 430.12 279.656C430.012 278.209 429.709 277.476 428.02 277.605C426.309 277.735 425.941 279.224 426.028 280.67C426.115 281.901 426.894 282.57 428.106 282.483ZM441.962 253.43C440.382 258.912 438.26 266.877 433.649 270.871C432.263 271.95 429.6 272.382 429.752 274.562C429.86 276.008 431.137 276.655 432.35 276.569C440.144 276.008 444.344 262.776 445.924 257.294C453.199 232.125 454.195 204.95 452.354 178.962L452.138 176.048C452.03 174.58 450.752 173.695 449.28 173.803C448.306 173.867 447.397 174.904 447.223 175.896C448.544 201.453 448.76 228.542 441.962 253.43Z" fill="#6057A1"/>
<path d="M605.463 128.927C632.006 130.978 644.216 160.01 642.376 183.559C641.64 193.035 635.535 202.317 624.818 201.496C604.359 199.921 613.798 176.22 605.138 164.564C604.705 163.787 603.579 162.492 602.367 162.406C598.968 162.147 594.53 165.471 591.672 167.694C575.218 180.839 566.579 203.871 564.977 224.506C564.046 236.637 566.125 263.424 582.925 264.719C597.539 265.841 604.077 247.796 618.453 248.897C627.459 249.588 634.43 257.704 633.738 266.683C632.655 280.519 609.858 293.427 598.362 296.449C592.105 298.154 586.671 298.715 580.349 298.24C543.327 295.391 528.844 254.941 531.333 222.65C534.105 186.667 560.669 125.474 605.463 128.927ZM540.729 224.549C540.578 226.492 540.924 228.478 543.111 228.65C544.561 228.758 545.622 227.873 545.731 226.405C545.925 223.729 545.666 220.793 545.882 218.117C547.809 193.359 560.149 170.133 579.461 154.765C582.319 152.541 590.373 149.994 590.654 146.347C590.763 144.9 590.091 144.102 588.619 143.994C585.696 143.756 579.678 148.678 577.859 149.994C556.989 166.464 543.306 191.049 541.271 217.512C541.184 218.721 540.794 223.578 540.729 224.549ZM596.153 144.814C597.604 144.922 603.666 142.699 603.796 141.015C603.904 139.569 602.497 138.705 601.284 138.619C598.86 138.425 594.573 139.806 594.378 142.483C594.291 143.692 594.703 144.706 596.153 144.814Z" fill="#6057A1"/>
<path d="M721.831 143.368C763.486 151.764 786.24 193.121 778.035 233.464C770.132 272.36 733.328 321.077 688.339 312.012C653.634 304.997 642.614 266.014 648.849 235.234C650.019 229.514 652.617 224.074 653.786 218.333C653.829 218.095 653.937 217.62 653.98 217.383C650.841 207.065 649.521 197.611 651.707 186.862C658.202 154.873 690.72 137.087 721.831 143.368ZM670.131 291.204C671.517 292.974 674.288 296.514 676.431 296.945C678.099 297.291 678.964 296.708 679.268 295.283C679.462 294.334 669.633 281.404 668.334 279.159C663.42 270.223 660.865 258.265 662.9 248.249C663.333 246.091 663.918 244.472 664.307 242.573C664.546 241.385 663.831 239.982 662.64 239.745C659.285 239.076 658.375 244.839 657.942 246.998C654.825 262.28 661.406 279.008 670.131 291.204ZM660.649 196.856C661.839 197.093 663.225 196.381 663.485 195.193C668.572 166.399 694.487 149.282 723.217 155.067C731.596 156.751 738.913 159.967 745.517 165.536C747.617 167.457 750.474 173.004 753.354 173.565C754.783 173.846 755.735 172.81 755.995 171.623C756.385 169.723 754.285 167.802 753.094 166.313C745.603 157.851 735.254 152.282 724.256 150.059C696.717 144.512 665.455 161.046 659.653 189.689C659.306 191.135 657.769 196.273 660.649 196.856ZM664.611 236.183C666.039 236.464 667.577 235.039 667.815 233.852C668.053 232.665 667.771 231.607 666.343 231.327C664.437 230.938 663.42 232.233 663.138 233.658C662.9 234.824 663.42 235.924 664.611 236.183ZM706.352 209.807C699.164 208.36 694.271 215.311 693.015 221.527C690.158 235.601 702.931 245.141 714.644 249.998C722.07 251.487 730.924 232.406 732.137 226.449C733.436 219.995 732.462 211.361 724.559 209.763C716.895 208.209 716.506 213.843 713.301 214.944C711.807 212.397 709.469 210.454 706.352 209.807ZM759.156 182.955C760.585 183.235 761.516 182.437 761.797 181.012C761.841 180.775 761.992 180.062 762.035 179.825C761.646 179.264 761.278 178.681 760.542 178.53C759.351 178.292 757.662 179.199 757.424 180.386C757.186 181.573 757.944 182.717 759.156 182.955Z" fill="#9F6CAB"/>
<path d="M843.742 174.062C852.619 177.537 856.819 186.991 853.095 195.733C852.532 197.071 852.143 197.978 851.038 199.359L825.903 246.674C825.795 246.89 823.608 252.048 822.764 254.077C816.009 270.007 808.561 287.491 810.445 304.953C810.618 305.817 810.943 307.544 810.943 307.544L811.397 307.738C816.442 309.594 838.828 282.548 843.829 275.123C851.775 263.92 858.118 243.328 876.542 250.581C887.086 254.509 889.402 265.28 885.419 274.691C882.756 280.972 879.508 286.736 876.932 292.801C871.779 304.91 866.626 320.192 869.636 333.1C869.896 333.748 870.025 335.906 870.935 336.295C872.515 336.964 875.46 335.021 875.871 334.676C892.606 325.869 908.562 295.823 915.404 279.677C918.738 271.82 921.726 263.553 921.942 254.919C922.115 252.61 922.224 233.615 922.18 231.219C922.375 228.909 923.089 226.578 924.042 224.333C927.852 215.354 937.876 211.123 946.969 214.706C952.685 216.865 958.033 221.765 958.227 228.197L959.072 243.091C958.552 248.703 958.79 254.358 957.968 260.078C956.842 271.497 953.443 281.987 948.961 292.52C936.296 322.351 899.837 386.329 856.299 369.536C844.868 365.24 839.412 356.844 835.212 346.094C834.39 343.634 834.195 338.518 833.091 336.727C819.061 341.648 811.419 347.152 796.61 341.432C758.463 326.927 777.45 269.079 788.318 243.501C797.563 221.743 809.189 201.259 822.374 181.422C827.137 174.45 836.013 171.04 843.742 174.062ZM785.85 300.399C785.72 301.931 785.915 303.334 787.582 303.788C788.925 304.349 790.31 303.615 790.787 302.493C791.068 301.824 791.068 301.824 791.133 301.046C791.631 281.145 794.164 262.647 802.088 244.04C809.319 226.988 818.195 209.85 830.882 195.625C831.9 194.46 833.35 194.805 834.108 193.013C834.866 191.222 834.455 189.711 832.874 189.063C830.752 188.437 828.696 190.747 827.592 192.128C814.125 207.605 804.145 224.83 796.242 243.436C788.535 261.589 786.067 281.167 785.85 300.399ZM838.611 186.171C840.062 186.516 841.751 185.653 842.335 184.293C842.898 182.955 842.162 181.573 840.82 181.012C839.239 180.343 838.178 180.969 837.529 182.523C837.031 183.645 837.269 185.588 838.611 186.171ZM846.773 351.232C847.639 352.915 849.306 356.52 851.428 357.168C852.554 357.642 854.069 357.211 854.546 356.088C855.693 353.39 852.857 351.944 851.948 349.699C841.902 327.726 849.133 301.953 858.378 280.195C861.149 273.698 865.133 267.439 867.969 260.704C868.553 259.366 868.12 257.855 866.67 257.509C863.509 256.171 861.56 261.438 860.564 263.122C857.836 268.324 855.412 273.374 853.117 278.771C843.786 300.766 836.143 328.762 846.773 351.232ZM858.205 362.413C859.33 362.888 860.716 362.154 861.084 361.247C861.669 359.909 861.019 358.312 859.893 357.837C858.767 357.362 857.707 357.966 857.23 359.089C856.754 360.211 856.776 362.067 858.205 362.413Z" fill="#E8719F"/>
<path d="M1017.68 264.676C1025.21 270.072 1025.75 279.764 1020.6 286.887L961.042 371.068C956.192 377.781 948.94 379.486 940.994 377.997C944.068 385.012 946.32 390.214 940.972 397.186C935.214 404.763 925.211 407.784 917.071 401.956C909.926 396.841 908.714 387.257 914.105 380.63C919.019 374.241 926.77 371.414 934.499 373.659C928.48 365.737 929.953 356.606 935.668 348.685L975.418 293.19C981.848 284.296 988.667 275.684 995.877 267.352C1001.79 261.675 1010.75 259.711 1017.68 264.676ZM927.636 393.603C928.416 394.164 930.126 393.884 930.71 393.107C931.425 392.114 931.208 390.754 930.212 390.042C929.217 389.329 928.199 389.502 927.485 390.495C926.77 391.488 926.251 392.61 927.636 393.603ZM945.584 359.974C946.58 360.686 947.597 360.513 948.312 359.52C949.026 358.527 949.156 357.124 947.944 356.261C946.948 355.549 945.454 355.98 944.869 356.757C943.895 358.16 944.393 359.132 945.584 359.974ZM992.889 290.707C992.456 291.29 990.702 293.341 990.551 293.535C984.359 301.694 955.326 340.266 949.329 348.577C948.766 349.375 948.983 350.735 949.784 351.296C950.78 352.009 952.339 351.922 953.248 351.081C953.681 350.498 955.673 347.713 956.301 347.282C957.015 346.289 959.007 343.526 959.158 343.332C965.199 335.367 993.257 298.176 999.103 290.081C999.666 289.283 999.297 288.139 998.518 287.556C997.522 286.844 996.115 286.736 995.054 287.772C994.751 288.139 993.322 290.103 992.889 290.707Z" fill="#E8DE7B"/>
<path d="M109.895 185.2L153.498 155.952C161.097 150.858 160.967 139.569 153.152 134.799C126.955 118.782 81.4688 81.1166 83.4173 13.1021C83.7854 0.280617 66.9633 -5.00772 60.122 5.87114C37.3245 42.134 20.719 105.033 93.5278 183.3C97.7496 187.855 104.721 188.675 109.895 185.2Z" fill="#70B74C"/>
<path d="M48.7774 80.6849C51.2238 101.385 61.7457 135.014 99.9146 169.594" stroke="white" stroke-width="5" stroke-miterlimit="10" stroke-linecap="round"/>
<path d="M55.1857 31.2551C55.1857 31.2551 53.93 33.6511 53.6919 36.4571" stroke="white" stroke-width="5" stroke-miterlimit="10" stroke-linecap="round"/>
<path d="M891.74 185.2L848.137 155.952C840.538 150.858 840.668 139.569 848.484 134.799C874.702 118.804 920.21 81.1381 918.262 13.1237C917.894 0.302191 934.716 -4.98614 941.557 5.89272C964.354 42.1556 980.938 105.076 908.151 183.322C903.886 187.855 896.915 188.675 891.74 185.2Z" fill="#70B74C"/>
<path d="M952.88 80.6849C950.433 101.385 939.912 135.014 901.743 169.594" stroke="white" stroke-width="5" stroke-miterlimit="10" stroke-linecap="round"/>
<path d="M946.45 31.2551C946.45 31.2551 947.706 33.6511 947.944 36.4571" stroke="white" stroke-width="5" stroke-miterlimit="10" stroke-linecap="round"/>
</g>
<defs>
<clipPath id="clip0_7_56">
<rect width="1024" height="405" fill="white"/>
</clipPath>
</defs>
</svg>
